<?xml version="1.0" standalone="no"?>
<!DOCTYPE svg PUBLIC "-//W3C//DTD SVG 20010904//EN"
 "http://www.w3.org/TR/2001/REC-SVG-20010904/DTD/svg10.dtd">
<svg version="1.0" xmlns="http://www.w3.org/2000/svg"
 width="848.000000pt" height="848.000000pt" viewBox="0 0 848.000000 848.000000"
 preserveAspectRatio="xMidYMid meet">
<metadata>
Created by potrace 1.14, written by Peter Selinger 2001-2017
</metadata>
<g transform="translate(0.000000,848.000000) scale(0.100000,-0.100000)"
fill="#000000" stroke="none">
<path d="M3573 6951 l-773 -776 314 -315 c263 -264 316 -321 325 -355 23 -84
7 -119 -104 -234 -52 -53 -99 -109 -104 -125 -14 -35 -14 -107 0 -143 38 -100
174 -151 275 -102 73 35 74 43 17 102 -64 65 -73 84 -73 144 0 65 28 109 86
134 57 26 107 19 164 -22 23 -17 227 -214 453 -439 227 -226 414 -410 417
-410 3 0 93 89 202 197 l197 196 -34 39 c-183 215 -154 567 63 744 105 85 196
118 332 118 79 1 107 -4 170 -27 41 -15 98 -45 125 -67 97 -77 70 -90 296 136
109 109 199 203 199 209 0 12 -641 655 -653 655 -4 0 -98 -93 -209 -206 -111
-113 -215 -212 -230 -220 -119 -62 -260 74 -205 199 7 15 103 121 215 236 111
115 202 214 202 219 0 11 -125 132 -136 132 -5 0 -83 -74 -174 -164 -176 -176
-194 -187 -274 -172 -95 18 -144 128 -100 221 9 19 85 100 170 180 85 81 154
152 154 159 0 11 -521 537 -530 534 -3 0 -353 -350 -777 -777z"/>
<path d="M2196 5651 c-319 -319 -328 -329 -305 -341 33 -17 487 -468 505 -502
34 -64 9 -152 -57 -201 -38 -27 -115 -27 -160 1 -39 24 -494 479 -502 502 -3
11 -26 -6 -81 -60 l-76 -75 179 -180 c98 -99 186 -194 195 -212 68 -137 -106
-276 -230 -184 -21 16 -111 101 -199 190 -88 89 -164 161 -170 161 -11 0 -575
-561 -575 -572 0 -3 309 -307 688 -674 378 -367 752 -732 832 -811 80 -79 149
-143 154 -143 12 0 303 268 507 467 189 184 218 203 295 189 29 -6 58 -28 130
-97 51 -49 112 -98 136 -109 74 -34 167 -21 212 29 24 26 33 115 17 163 -15
46 -67 96 -85 83 -62 -46 -72 -50 -126 -50 -41 1 -64 6 -87 23 -57 40 -80 131
-49 190 8 15 204 216 435 447 232 231 421 424 421 430 0 6 -90 100 -199 209
l-200 200 -39 -36 c-168 -151 -429 -172 -618 -50 -172 112 -259 304 -233 512
11 89 39 157 101 244 l50 69 -258 258 c-143 143 -263 259 -269 259 -6 0 -158
-148 -339 -329z"/>
<path d="M5985 5339 c-198 -192 -373 -359 -390 -370 -56 -36 -151 -18 -193 36
-58 73 -47 150 31 232 58 62 57 72 -9 111 -54 32 -155 28 -207 -8 -78 -53
-107 -143 -72 -226 8 -20 57 -79 109 -133 72 -74 96 -106 101 -133 8 -42 -1
-92 -23 -130 -8 -14 -165 -171 -349 -349 -183 -177 -333 -325 -333 -328 1 -3
90 -98 199 -210 l198 -205 44 35 c106 85 204 121 329 122 152 1 280 -53 380
-160 99 -105 140 -209 140 -353 0 -133 -42 -249 -122 -336 -22 -24 -38 -47
-36 -53 1 -5 92 -100 201 -211 l199 -202 126 123 c70 69 209 204 310 302 100
98 182 180 182 184 0 3 -90 94 -199 202 -172 169 -201 202 -211 239 -29 114
62 214 180 197 42 -7 57 -19 252 -213 l208 -206 27 24 c16 14 63 58 105 99
l78 75 -154 156 c-85 85 -159 168 -165 183 -48 125 59 249 183 216 33 -9 72
-41 203 -171 l162 -161 206 199 c113 109 204 203 203 210 -3 14 -1517 1564
-1526 1564 -4 0 -169 -158 -367 -351z"/>
<path d="M4078 3733 l-177 -178 33 -38 c148 -167 164 -419 40 -614 -47 -74
-154 -183 -216 -220 -62 -38 -189 -73 -262 -73 -116 0 -251 52 -339 131 l-49
42 -271 -271 -272 -272 240 -240 c132 -132 245 -240 251 -240 5 0 132 119 280
264 242 236 275 264 311 270 43 8 101 -10 135 -41 29 -26 51 -97 43 -140 -6
-33 -43 -75 -278 -311 l-272 -274 89 -84 90 -85 149 156 c82 85 162 162 178
170 67 35 159 8 199 -57 26 -42 26 -113 1 -153 -10 -16 -82 -97 -160 -178 -77
-82 -141 -152 -141 -155 0 -4 114 -120 253 -259 l252 -251 845 839 845 838
-236 238 c-130 131 -242 248 -248 260 -14 28 -14 83 0 120 6 15 50 69 100 119
94 97 119 139 119 204 0 156 -172 254 -306 175 -25 -15 -48 -33 -51 -42 -4 -9
11 -32 39 -61 57 -59 68 -80 68 -134 0 -83 -66 -148 -150 -148 -25 1 -55 6
-67 13 -12 7 -213 202 -446 435 -234 232 -429 422 -433 422 -5 0 -89 -80 -186
-177z"/>
</g>
</svg>
